<svg viewBox="0 0 1595 815" xmlns="http://www.w3.org/2000/svg" fill-rule="evenodd" clip-rule="evenodd" stroke-linecap="round" stroke-linejoin="round" stroke-miterlimit="1.5">
<defs>
  <style type="style/css">
    @keyframes clouds {
      0% {
        opacity: 0;
        transform: translate(-100px);
      }
      
      100% {
        opacity: 1;
      transform: translate(0);
      }
      
    }
    
    @keyframes fade-in {
      0% {
        opacity: 0;

      }
      
      100% {
        opacity: 1;
      }
      
    }
    
    #clouds path  {
      opacity: 0;
    }
    
    #clouds path:nth-of-type(n+4) {
      animation: clouds 2s ease forwards;
    }
    #clouds path:nth-of-type(n+1) {
      animation: clouds 2s ease 0.2s forwards;
    }
    
    .text {
      opacity: 0;
      animation: fade-in 1s ease 2s forwards;
    }
  </style>
  </defs>

  <path fill="#ffe6eb" d="M0 0h1594.05v814.541H0z" />
  <path d="M317.651 435.375v2.93s6.278-2.833 7.369-2.341c1.091.491-2.209 4.965-.823 5.29 1.386.326 7.229-3.588 9.14-3.337 1.789.236.528 4.676 2.324 4.844 1.914.18 6.182-5.312 8.811-5.193 2.629.119 4.379 6.082 6.966 5.908 2.586-.173 6.984-9.855 10.141-10.081 3.156-.226 4.353 13.653 6.865 13.255 2.513-.397 5.092-9.811 6.89-10.57 1.799-.758 3.824 3.302 5.703 2.971 1.879-.331 3.311-8.188 5.587-8.188 2.515 0 7.62 4.378 9.712 4.205 1.952-.161 3.435-5.271 5.057-5.869 1.622-.598 14.912 3.006 14.912 3.006-2.626-2.046-2.884-2.531-10.504-8.33-12.82-9.757-26.287-16.705-39.371-26.005l-48.779 37.505zM914.522 482.33c-.002.739.128 1.652-.185 2.269-1.366 2.692 3.596.909 4.571.266.214-.142 3.39-2.6 3.687-2.311.302.295.783 2.972 1.361 4.149.629 1.279 2.3 1.072 3.674.733 2.738-.677 5.071-3.178 7.653-4.348.606-.275 2.724-1.413 3.438-1.07 2.113 1.014 2.855 3.86 5.317 4.485 2.19.555 4.568-.857 6.567-1.454 2.822-.841 7.028-3.909 9.991-3.404 1.723.293 4.392 5.432 6.083 5.058 4.714-1.041 8.597-7.997 13.663-8.736 3.762-.549 12.091 10.496 13.087 10.335 2.696-.434 6.358-8.421 7.801-8.572 1.985-.572 6.076 4.526 8.805 3.844 3.157-.789 5.926-4.375 9.351-5.231 2.377-.594 5.406 3.245 7.746 3.643 2.891.492 5.149-.542 7.829-1.212 2.684-.671 5.178 1.23 7.452 1.238-11.599-6.675-20.54-9.261-32.246-15.29-5.052-2.602-10.072-8.01-15.742-11.145-7.466-4.128-18.573-7.229-24.245-7.939-3.458-.433-5.972 1.749-9.786 3.679-15.163 7.673-30.416 19.375-45.872 31.013z" fill="#fff" stroke="#333" stroke-width="2.5" />
  <path d="M1300.26 493.017c17.492-15.162 31.9-23.231 35.052-23.233 2.848-.001 13.398 1.357 13.608 1.073-2.353-.198-.638 3.295-2.301 4.868-.571.539-2.209.24-2.85.886-.786.794.76 2.582-.521 3.212-1.567.771-5.785-1.004-6.953.1-1.106 1.046-.773 4.403-2.402 5.204-2.789 1.372-8.137-1.102-10.406-.003-1.964.952-3.088 3.358-4.9 4.243-2.564 1.252-6.976-.999-9.469.217-3.551 1.732-12.193 6.323-8.858 3.433z" fill="#fff" />
  <path d="M1337.12 480.862c-.17.187-.232.498-.322.827-.167.604-.296 1.286-.479 1.912-.349 1.196-.936 2.184-1.879 2.648-1.587.781-3.901.566-6.143.214-.945-.149-1.874-.308-2.704-.362-.615-.04-1.161-.048-1.565.148-.841.407-1.481 1.149-2.126 1.861-.864.954-1.731 1.873-2.771 2.381-1.479.722-3.488.528-5.491.235-1.466-.215-2.925-.533-3.978-.019-2.301 1.123-6.715 3.426-8.708 4.175-.47.177-.845.276-1.083.304a1.585 1.585 0 01-.782-.09 1.275 1.275 0 01-.749-.761 1.318 1.318 0 01-.019-.893c.071-.225.361-.716 1.116-1.37 12.344-10.699 23.169-17.889 29.641-21.244 3.018-1.565 5.192-2.293 6.23-2.294 2.444-.001 10.558.998 12.951 1.103.225-.038.478-.049.762-.025a1.249 1.249 0 01.898 1.991c-.076.103-.412.454-1.086.529-.027.136-.06.329-.071.469-.019.242-.032.499-.049.759-.082 1.194-.342 2.424-1.239 3.273-.382.361-1.018.585-1.75.688-.247.035-.507.062-.754.107a1.769 1.769 0 00-.15.036c.051.271.138.743.174 1.026.133 1.034-.105 1.917-1.198 2.454-.462.228-1.074.338-1.781.329-.77-.01-1.686-.155-2.583-.289-.631-.095-1.251-.185-1.78-.184-.191 0-.468.05-.532.062zm9.192-8.872c-.066.534-.065 1.167-.15 1.781-.049.355-.109.716-.346.983-.147.025-.768.129-1.131.187-.73.115-1.386.364-1.808.791-.507.511-.666 1.188-.57 1.958.037.293.129.799.18 1.073-.193.033-.427.016-.682.002-.878-.049-1.918-.257-2.861-.373-.778-.096-1.504-.127-2.081-.034-.599.097-1.08.326-1.431.657-.344.326-.622.782-.829 1.335-.216.576-.364 1.28-.532 1.973-.108.445-.221.886-.4 1.255-.086.178-.171.347-.334.428-.66.324-1.506.334-2.409.271-1.114-.079-2.303-.301-3.42-.468-1.825-.273-3.489-.333-4.57.19-1.123.545-2.027 1.481-2.888 2.432-.642.709-1.244 1.436-2.016 1.813-1.085.53-2.562.224-4.031.008-2.005-.294-3.997-.494-5.437.208-.65.317-1.473.733-2.361 1.181 9.982-8.164 18.571-13.767 24.023-16.594 2.485-1.288 4.227-2.012 5.081-2.013 1.972-.001 7.639.651 11.003.956z" fill="#333" />
  <path d="M1495.49 411.074c-.02 5.79-4.177 8.175-6.709 10.809-2.378 2.475-4.791 6.099-7.262 9.341-1.814 2.379-2.378 6.024-4.091 7.599-1.731 1.591-5.654 2.392-7.903 4.605-3.693 3.635-3.434 9.998-6.793 13.234-5.884 5.67-13.242 1.57-19.2 1.55-2.303-.007-3.926 1.51-6.228 1.502-5.399-.018-9.343-1.879-14.812-.212-2.309.703-5.714-1.517-8.172-.298-1.267.628-4.727 1.215-5.529 1.212 0 0 8.724-6.261 17.333-8.927 8.609-2.666 17.885-3.792 21.381-5.734 3.496-1.942 34.712-23.59 47.056-35.961.873-.875.929 1.28.929 1.28z" fill="#fff" />
  <path d="M1496.74 411.078l-.001-.036s-.02-.681-.173-1.241c-.111-.405-.301-.754-.512-.977a1.506 1.506 0 00-.999-.484c-.362-.029-.855.046-1.379.571-12.271 12.299-43.303 33.821-46.778 35.751-3.455 1.92-12.634 2.997-21.144 5.633-8.786 2.721-17.692 9.106-17.692 9.106a1.25 1.25 0 00.725 2.265c.884.003 4.692-.65 6.088-1.342.986-.489 2.161-.195 3.321.057 1.672.364 3.327.723 4.66.317 2.55-.777 4.745-.721 6.931-.479 2.387.263 4.765.736 7.513.745 1.316.004 2.444-.403 3.566-.834.84-.323 1.675-.671 2.662-.668 2.944.01 6.232 1.038 9.513 1.353 3.666.352 7.31-.122 10.559-3.253 1.816-1.75 2.705-4.321 3.589-6.972.755-2.263 1.508-4.592 3.213-6.271 1.249-1.229 3.072-1.96 4.664-2.689 1.281-.586 2.434-1.176 3.208-1.886.797-.734 1.409-1.835 1.957-3.09.669-1.531 1.253-3.322 2.282-4.672 2.441-3.203 4.82-6.788 7.169-9.233 1.013-1.053 2.285-2.066 3.449-3.274 1.944-2.017 3.596-4.529 3.609-8.397zm-2.536.815c-.225 2.619-1.468 4.389-2.873 5.847-1.165 1.209-2.438 2.223-3.451 3.277-2.407 2.504-4.854 6.168-7.355 9.449-.971 1.273-1.621 2.877-2.244 4.381-.505 1.219-.957 2.373-1.699 3.056-.787.723-2.087 1.238-3.431 1.852-1.61.736-3.278 1.577-4.503 2.782-1.987 1.957-2.951 4.626-3.83 7.262-.75 2.249-1.412 4.478-2.953 5.963-2.635 2.539-5.612 2.85-8.586 2.565-3.359-.323-6.728-1.355-9.743-1.365-1.317-.004-2.445.403-3.567.834-.841.324-1.675.671-2.66.668-2.652-.009-4.945-.476-7.248-.73-2.503-.277-5.014-.317-7.934.572-.976.298-2.176-.102-3.399-.368-1.065-.231-2.138-.399-3.149-.324 3.092-1.761 7.015-3.723 10.915-4.931 8.708-2.697 18.082-3.871 21.618-5.835 3.404-1.892 32.949-22.362 46.092-34.955z" fill="#333" />
  <path d="M586.866 529.411c6.362 0 48.624-3.218 55.026-6.444 11.394-5.74 25.604-14.322 39.59-11.522 31.622 6.331 70.737 34.672 104.772 23.712 13.469-4.338 24.636-14.203 37.487-19.364 18.91-7.593 38.809-10.522 57.845-17.733 31.061-11.766 56.011-35.105 84.521-49.576 8.364-4.246 31.075 8.634 37.475 13.429 25.943 19.434 66.205 26.542 95.622 38.878 18.092 7.587 32.543 24.274 51.879 30.294 36.556 11.381 78.182 28.574 108.51 53.409 16.669 13.649 16.618 39.951 33.467 50.998 22.905 15.018 57.165 15.525 84.087 22.315 29.79 7.514 58.032 27.757 77.693 47.418" fill="none" stroke="#333" stroke-width="2.5" />
  <path d="M79.139 663.568c0-15.698 19.276-29.649 28.359-41.813 30.834-41.294 77.977-64.571 113.991-100.915 28.009-28.264 54.804-54.386 86.032-79.304 10.473-8.357 21.562-14.375 32.154-22.391 8.08-6.116 19.348-15.767 24.514-21.012 1.256-1.275 5.718 2.185 11.112 5.934 6.186 4.3 13.48 9.158 16.567 10.702 1.695.847 8.851 6.12 10.387 7.013 11.179 6.503 16.855 12.783 24.574 22.139 2.907 3.523 53.311 25.031 65.322 34.039 13.442 10.082 28.215 20.865 39.576 32.226 3.127 3.127 20.053 2.044 25.33 4.682 28.839 14.42 63.993 36.265 86.805 56.971 1.629 1.479 13.812 2.111 16.488 3.096 13.121 4.831 24.671 12.674 36.279 19.471 28.309 16.574 45.357 66.604 65.139 79.574 12.951 8.492 22.978 15.354 36.675 22.202 15.358 7.679 25.72 25.481 41.905 33.573 5.565 2.783 24.226 4.636 28.375 8.785M1178.8 540.405c12.598-12.811 40.547-5.815 54.264-19.741.441-.447 28.507-1.564 33.372-4.052 21.894-11.198 41.962-34.314 65.497-46.26 5.397-2.739 14.668 2.342 20.113-.422 16.305-8.276 49.079-6.666 58.575-11.491 17.555-8.919 18.012-6.493 36.594-12.366 16.884-5.336 64.081-53.452 67.693-53.452M1149.33 533.76c8.664 8.665 3.884 27.458 12.844 36.556 9.404 9.549 31.493 23.029 38.733 37.399 5.912 11.735 3.878 25.607 12.649 34.379" fill="none" stroke="#333" stroke-width="2.5" />
  <path d="M1197.85 617.696c0-.594-.436 4.782 0 5.179 2.232 2.029 1.047 13.225 2.908 16.947 7.048 14.097 7.39 18.569 16.878 28.211.264.269 1.164.316 1.164.806M1221.31 630.024c-1.925-1.925-.033 6.065 1.951 7.929 2.903 2.727 15.304 13.348 15.304 17.343M426.273 443.537c1.215 0 12.044 14.924 13.721 17.482 10.892 16.612 23.864 31.841 34.832 48.57 5.631 8.588 14.828 9.032 20.987 16.802 5.802 7.319 9.464 18.74 15.676 24.952 2.554 2.554 11.307 3.999 12.592 6.569 7.038 14.076 7.402 38.61 18.835 50.042 5.79 5.79 11.883 18.909 19.515 22.724 8.913 4.457 17.227 9.143 25.392 15.267 7.707 5.78 25.261 18.508 33.982 18.508" fill="none" stroke="#333" stroke-width="2.5" />
  <path d="M543.558 579.441c3.969 0 14.678 17.803 17.639 20.955 7.197 7.662 20.281 11.019 31.27 16.513 3.098 1.549 8.672-1 11.504.416 8.389 4.194 13.751 14.694 23.649 14.694M682.117 524.213c4.389 0 2.268 2.23 4.323 4.286 6.701 6.701 27.41 2.294 34.039 8.923 11.649 11.65 36.298 42.472 56.864 42.472M694.592 540.495c-9.718 0-12.56-13.27-22.111-13.27M366.506 397.864c0 .773-11.613 8.597-13.045 10.081-10.157 10.526-21.263 22.404-28.337 33.842-6.431 10.399-13.83 13.987-22.141 20.655-6.008 4.82-5.222 13.602-8.96 19.692-7.722 12.581-23.192 20.837-30.531 32.794-8.799 14.334-17.379 32.021-29.842 41.558-8.603 6.584-32.678 27.594-32.678 38.959M215.998 581.59c-1.059 0-1.811 8.701-2.966 9.838-4.732 4.661-6.323 16.728-9.823 23.623-3.797 7.48-12.749 14.215-12.749 24.256 0 .891.732 2.78 1.252 2.78M210.071 619.042c0 6.092-4.167 8.341-4.167 14.252M197.619 578.031c0 3.712-3.78 13.637-5.816 15.805-1.148 1.222-.936 6.618-.936 4.942" fill="none" stroke="#333" stroke-width="2.5" />
  <path d="M366.3 401.399c-.474 0-.72 2.378-1.08 2.711-1.31 1.212-2.628 1.747-3.584 3.63-1.437 2.832-3.165 4.561-5.211 7.264-1.028 1.358-1.322 3.335-2.058 4.785-.489.963-2.521 1.584-3.291 2.347-.853.846-2.033 3.351-2.985 3.824-3.517 1.745-5.104 5.145-7.618 7.659-.602.602-3.325.328-4.367 1.004-2.001 1.3-2.515 4.164-4.794 5.491-1.651.962-4.42 1.161-5.765 2.486-.451.445-.398.98-.91 1.485-.81.798-1.993 1.624-1.993 2.681M362.905 412.555c0 1.324-1.734 2.831-2.088 4.227-.39 1.541-1.029 1.203-1.576 2.281-1.225 2.414-2.354 4.675-3.637 7.205-.401.789-1.547.871-1.547 1.6M352.292 416.035c-1.452 0-2.776 3.298-3.545 4.054M457.837 505c0 10.032 4.852 16.298 6.694 26.035 2.473 13.077-.524 27.031 1.878 40.348.658 3.648 4.97 23.086 8.638 23.086M399.148 533.22c.009-3.772-.577-8.676.028-12.332.533-3.223 2.185-5.756 2.971-8.775 3.366-12.944 8.486-23.088 13.42-34.55.793-1.84 2.444-2.609 3.226-4.43 1.064-2.476.876-5.781 1.54-8.469 1.943-7.853 2.481-16.936 2.5-25.207" fill="none" stroke="#333" stroke-width="2.5" />
  <path d="M402.651 508.407c-2.648-.014-6.238 2.879-7.863 6.109-2.546 5.066-2.218 14.131-3.213 20.009-.591 3.499-2.225 5.433-3.106 8.131-1.259 3.853-.113 9.328.665 12.917" fill="none" stroke="#333" stroke-width="2.5" />
  <path d="M392.1 532.364c-.014 6.577 1.563 10.846 2.529 16.8.39 2.403-.52 6.36.173 8.55.889 2.815 2.359 5.318 2.351 9.075M968.775 449.188c-.013 3.623-2.821 6.61-4.632 9.531-3.048 4.918-6.256 10.201-8.817 15.206-1.735 3.389-8.121 4.932-10.15 8.922-5.387 10.597-10.846 21.24-17.015 31.604-2.636 4.429-7.719 6.837-10.525 11.026-3.518 5.25-7.19 15.819-8.773 21.976-.745 2.898-4.413 4.924-5.29 7.668-1.894 5.923-2.536 12.223-3.731 18.349-.758 3.878-2.595 6.656-2.608 10.55M1012.57 474.817c-1.389-2.779-4.247-2.551-6.381-3.627-1.988-1.002-2.036-3.055-3.844-3.96-1.447-.724-3.263-1.238-5.034-2.131-1.679-.847-1.123-4.335-3.517-4.343M931.99 477.332c1.467.005 2.457-3.915 3.777-4.58 2.081-1.048 3.346-3.425 5.397-4.779 1.231-.814 2.614-.621 3.854-1.245 1.431-.721 2.052-2.625 3.316-3.257 1.417-.708 3.797-2.013 4.755-3.477 1.721-2.63 4.288-4.449 6.379-6.433.567-.536 1.309-2.046 2.091-2.043M928.255 476.845c.002-.861.741-.613.997-1.143.851-1.769 2.19-2.667 3.491-3.968M1455.68 460.416c-12.721 12.448-15.697 30.793-21.19 47.973-1.309 4.094.971 11.893-1.031 15.712-5.336 10.184-12.646 22.215-18.601 33.929-9.444 18.575-25.948 33.186-40.354 46.615-2.592 2.415-7.324 5.759-10.22 7.182-.678.334-9.098.613-6.817 2.909" fill="none" stroke="#333" stroke-width="2.5" />
  <path d="M914.135 533.69c-.493-.002 4.447 6.369 5.449 7.378 2.063 2.076 4.516 4.896 7.133 6.215 12.19 6.147 17.116 16.54 17.072 29.435-.148 43.992 23.773 30.477 47.165 54.027 8.833 8.893 18.73 29.094 25.579 43.014 5.486 11.15 33.386 23.344 33.324 41.767M1009.13 624.608c.062-18.635 2.671-21.77 15.865-35.721 5.544-5.862-3.159-29.431.606-37.011 2.625-5.285 27.403-16.862 27.447-30.043M1417.92 552.521c-29.509-.1-31.221 20.759-50.836 26.736-7.422 2.261-21.749 7.096-27.195 12.344-3.911 3.769-8.811 11.328-15.161 14.429-8.697 4.247-24.437 7.342-24.467 16.3" fill="none" stroke="#333" stroke-width="2.5" />
  <g fill="#fff" id="clouds">
    <path d="M756.386 144.44c-40.041 3.81-247.062 16.091-247.062 16.091 3.793-16.234 7.957-3.305 13.267-8.714 2.733-2.784 3.008-7.014 7.227-7.343 1.03-.08 13.592-2.199 12.815 1.126l.353-1.514c.683-2.922 3.99-6.081 5.524-7.925 5.012-6.024 10.976-10.884 16.778-12.496 5.77-1.603 11.921-.228 17.235 1.034 2.066.491 18.139 2.983 16.96 8.028-.115.496.3-1.01.558-1.388 1.713-2.504 5.062-3.612 7.124-4.32 5.784-1.986 11.433-1.634 16.799-.36 2.073.493 17.146 1.627 15.986 6.59-.46 1.97 1.353-4.063 2.508-5.263 2.32-2.408 4.984-4.436 7.497-5.853 9.329-5.262 18.177-9.613 27.456-8.74 8.52.801 23.516 4.863 31.241 9.254 3.196 1.816 5.117 7.713 7.431 10.961.929 1.303 13.004-1.032 15.264-.819 5.331.5 13.9.994 18.224 4.884 2.103 1.892 9.802 6.483 6.815 6.767zM202.432 366.612s295.801-11.823 295.386-14.165c-.552-3.113-15.441-5.649-21.884-9.686-5.052-3.166-12.464-6.013-26.845-1.478-7.969-3.897-21.553-7.012-43.416-3.086-.425.076-12.487-10.681-19.616-10.191-8.701.598-33.529 10.104-32.585 13.777.427 1.663-1.401-3.379-2.789-4.279-1.673-1.085-12.727-4.631-23.943-5.33-7.472-.466-14.876-.126-19.752-.804-2.838-.395-17.402 3.551-30.343 8.469-10.444 3.969-19.966 11.002-21.345 12.092-2.098 1.657-12.092-1.062-24.718.865-12.899 1.968-26.122 9.365-28.15 13.816z" />
    <path d="M353.507 338.797c-.173-.314-.35-.618-.521-.886-.485-.759-1.022-1.364-1.487-1.666-1.725-1.118-13.103-4.848-24.666-5.568-7.428-.463-14.79-.119-19.638-.793-.935-.13-3.034.119-5.889.746-6.122 1.346-16.059 4.336-25.194 7.807-10.638 4.043-20.337 11.207-21.742 12.317-.151.119-.404.13-.717.17-.591.074-1.328.082-2.194.061-4.51-.111-12.154-1.038-21.103.328-9.276 1.415-18.712 5.57-24.255 9.5-2.591 1.837-4.352 3.68-5.034 5.177a1.5 1.5 0 001.425 2.121s239.644-9.58 287.27-13.203c3.773-.287 6.363-.541 7.563-.747.617-.106 1.001-.249 1.167-.341.345-.191.523-.43.627-.614.194-.343.235-.686.176-1.021-.118-.662-.526-1.359-1.305-1.998-.745-.61-1.905-1.227-3.349-1.827-4.91-2.041-13.458-4.08-17.91-6.87-5.221-3.271-12.845-6.306-27.525-1.814-8.134-3.825-21.714-6.824-43.224-3.056-1.524-1.119-5.794-4.576-10.352-7.111-3.353-1.865-6.875-3.192-9.676-2.999-7.134.49-24.85 6.819-31.155 11.261a13.17 13.17 0 00-1.292 1.026zm-151.075 27.815s295.801-11.823 295.386-14.165c-.552-3.113-15.441-5.649-21.884-9.686-5.052-3.166-12.464-6.013-26.845-1.478-7.969-3.897-21.553-7.012-43.416-3.086-.425.076-12.487-10.681-19.616-10.191-8.701.598-33.529 10.104-32.585 13.777.427 1.663-1.401-3.379-2.789-4.279-1.673-1.085-12.727-4.631-23.943-5.33-7.472-.466-14.876-.126-19.752-.804-2.838-.395-17.402 3.551-30.343 8.469-10.444 3.969-19.966 11.002-21.345 12.092-2.098 1.657-12.092-1.062-24.718.865-12.899 1.968-26.122 9.365-28.15 13.816zM720.774 193.254s296.613-7.606 296.157-10.109c-.607-3.326-15.59-6.28-22.122-10.691-5.123-3.46-12.608-6.619-26.962-2.03-8.062-4.288-21.746-7.836-43.617-4.022-.425.075-12.71-11.593-19.856-11.192-8.719.49-33.472 10.203-32.463 14.133.456 1.78-1.463-3.625-2.871-4.608-1.697-1.184-12.848-5.15-24.115-6.084-7.505-.623-14.928-.386-19.833-1.191-2.855-.469-17.402 3.491-30.304 8.514-10.412 4.054-19.848 11.389-21.214 12.527-2.077 1.73-12.151-1.337-24.787.503-12.911 1.88-26.054 9.541-28.013 14.25z" />
    <path d="M871.931 166.238a18.948 18.948 0 00-.548-.973c-.487-.798-1.024-1.438-1.485-1.76-1.749-1.221-13.23-5.386-24.849-6.349-7.46-.619-14.839-.376-19.714-1.176-.945-.156-3.058.073-5.928.697-6.123 1.332-16.05 4.352-25.163 7.899-10.617 4.133-20.238 11.612-21.63 12.772-.139.116-.378.116-.67.151-.589.068-1.324.064-2.187.027-4.531-.194-12.223-1.311-21.187-.006-9.299 1.354-18.713 5.631-24.218 9.732-2.569 1.914-4.304 3.842-4.963 5.426a1.498 1.498 0 001.423 2.075s240.305-6.162 288.033-9.219c3.787-.243 6.384-.47 7.587-.67.825-.137 1.282-.393 1.433-.519.564-.468.625-1.011.541-1.469-.123-.674-.531-1.382-1.287-2.044-.755-.661-1.924-1.333-3.378-1.994-4.962-2.259-13.577-4.578-18.093-7.628-5.298-3.578-13.001-6.935-27.658-2.403-8.232-4.212-21.906-7.631-43.418-3.984-1.546-1.217-5.888-4.973-10.502-7.75-3.4-2.047-6.968-3.518-9.78-3.36-7.161.402-24.858 6.858-31.12 11.492-.474.351-.888.697-1.239 1.033zm-151.157 27.016s296.613-7.606 296.157-10.109c-.607-3.326-15.59-6.28-22.122-10.691-5.123-3.46-12.608-6.619-26.962-2.03-8.062-4.288-21.746-7.836-43.617-4.022-.425.075-12.71-11.593-19.856-11.192-8.719.49-33.472 10.203-32.463 14.133.456 1.78-1.463-3.625-2.871-4.608-1.697-1.184-12.848-5.15-24.115-6.084-7.505-.623-14.928-.386-19.833-1.191-2.855-.469-17.402 3.491-30.304 8.514-10.412 4.054-19.848 11.389-21.214 12.527-2.077 1.73-12.151-1.337-24.787.503-12.911 1.88-26.054 9.541-28.013 14.25z" />
    <path d="M1205.27 156.981l-376.704 17.246c1.36-6.039 32.318-10.598 44.973-13.595 1.314-.311 19.184-2.487 19.66-2.783 11.47-7.12 26.072-12.021 40.795-16.988 10.546-3.557 49.374 4.687 52.084 2.941 14.172-9.129 17.464-13.372 59.805-15.038 30.452-1.504 69.721 12.319 72.928 11.092 10.58-5.178 29.975-8.657 45.223 7.992 15.929-4.895 42.387 4.023 41.236 9.133z" />
    <path d="M985.366 142.473c-.17.017-.97.087-1.669.065-1.85-.06-4.604-.357-7.893-.762-9.149-1.126-22.351-3.08-31.992-3.296-4.329-.097-7.971.174-10.302.96-14.755 4.977-29.383 9.903-40.911 17.014-.265.048-1.001.177-1.725.284-4.896.724-16.627 2.184-17.686 2.435-8.894 2.106-26.79 4.989-37.197 8.604-2.837.985-5.14 2.041-6.63 3.129-1.296.947-2.037 1.985-2.264 2.991l1.532 1.828 376.705-17.245 1.395-1.169c.226-1.004-.067-2.143-1.035-3.277-.983-1.152-2.772-2.395-5.163-3.554-8.418-4.081-24.583-7.418-36.034-4.328-15.657-16.43-35.286-12.99-46.169-7.731a51.8 51.8 0 01-5.084-.855c-12.744-2.879-42.927-11.509-67.432-10.3-42.773 1.683-46.182 6.009-60.446 15.207zm219.899 14.508l-376.704 17.246c1.36-6.039 32.318-10.598 44.973-13.595 1.314-.311 19.184-2.487 19.66-2.783 11.47-7.12 26.072-12.021 40.795-16.988 10.546-3.557 49.374 4.687 52.084 2.941 14.172-9.129 17.464-13.372 59.805-15.038 30.452-1.504 69.721 12.319 72.928 11.092 10.58-5.178 29.975-8.657 45.223 7.992 15.929-4.895 42.387 4.023 41.236 9.133zM424.959 153.365c1.658-12.946 12.421-13.059 16.724-10.391 11.699-10.94 3.513-6.65 15.26-12.27 9.961-4.765 16.898 3.646 24.239 6.597 6.077 2.443 25.948-23.918 41.692-24.02 14.313-.093 32.379 14.759 34.716 18.202.97 1.429 1.259-5.261 19.808-3.834 11.951.769 20.233 7.202 14.353 8.303-25.056 4.696-140.795 15.884-166.792 17.413z" />
    <path d="M558.039 129.667c-2.004-2.212-6.685-6.229-12.52-9.882-6.835-4.281-15.24-8.052-22.654-8.004-4.655.03-9.67 2.183-14.593 5.284-7.035 4.432-13.916 10.783-19.299 14.959-2.16 1.675-4.051 2.993-5.599 3.616-.655.264-1.196.445-1.632.269-3.642-1.464-7.18-4.29-11.046-6.152-4.283-2.061-8.927-3.025-14.4-.406-7.552 3.613-7.364 3.489-8.754 5.275-.796 1.022-2.142 2.758-6.11 6.524-3.103-1.391-7.993-1.676-11.94.947-2.863 1.903-5.285 5.332-6.021 11.077a1.5 1.5 0 001.576 1.688c26.026-1.531 141.896-12.735 166.98-17.435 1.757-.329 2.631-1.145 2.966-1.942.29-.688.281-1.488-.152-2.343-.436-.864-1.43-1.886-2.952-2.845-3.007-1.896-8.229-3.747-14.385-4.144-12.201-.937-17.651 2.117-19.465 3.514zm-133.08 23.698c1.658-12.946 12.421-13.059 16.724-10.391 11.699-10.94 3.513-6.65 15.26-12.27 9.961-4.765 16.898 3.646 24.239 6.597 6.077 2.443 25.948-23.918 41.692-24.02 14.313-.093 32.379 14.759 34.716 18.202.97 1.429 1.259-5.261 19.808-3.834 11.951.769 20.233 7.202 14.353 8.303-25.056 4.696-140.795 15.884-166.792 17.413zM946.318 223.324c3.685-21.692 15.107-15.854 20.159-10.944 12.696-21.988 11.779-9.061 24.005-14.892 13.254-6.32 18.118-7.627 26.937-1.951 2.686 1.728 5.409-4.968 14.221-8.11 3.729-1.329 10.131-.758 15.208-2.111 7.001-1.867 17.408-9.716 26.797-9.088 17.921 1.199 36.519 11.425 39.014 17.458 1.036 2.504 15.648-1.764 23.206 1.34 7.896 3.243 26.461 12.877 18.966 14.18-31.935 5.551-173.336 11.369-208.513 14.118z" />
    <path d="M1113.93 192.848c-.912-1.936-3.206-4.286-6.555-6.601-7.624-5.269-20.795-10.657-33.627-11.516-4.927-.329-10.134 1.518-15.016 3.74-4.565 2.079-8.831 4.479-12.268 5.395-2.962.79-6.389.893-9.44 1.138-2.238.18-4.289.441-5.885 1.01-5.509 1.964-8.751 5.236-11.054 7.171-.496.417-.933.763-1.344.982-.188.1-.342.215-.507.109-3.796-2.443-6.923-3.648-10.207-3.823-4.762-.252-9.916 1.737-18.187 5.681-4.505 2.148-7.076 1.506-9.283 1.29-2.548-.25-4.745-.14-8.019 3.397-1.704 1.841-3.761 4.728-6.429 9.223-1.435-1.17-3.152-2.268-4.979-2.967-2.691-1.028-5.607-1.196-8.303.297-3.287 1.822-6.395 6.339-7.985 15.699a1.502 1.502 0 001.596 1.746c35.201-2.75 176.697-8.58 208.653-14.135 2.072-.36 2.826-1.402 2.965-2.362.121-.833-.285-1.991-1.446-3.186-3.475-3.577-14.496-9.166-20.172-11.497-5.465-2.245-14.497-.852-19.794-.645-.799.031-1.501.033-2.074-.024a4.762 4.762 0 01-.64-.122zm-167.609 30.476c3.685-21.692 15.107-15.854 20.159-10.944 12.696-21.988 11.779-9.061 24.005-14.892 13.254-6.32 18.118-7.627 26.937-1.951 2.686 1.728 5.409-4.968 14.221-8.11 3.729-1.329 10.131-.758 15.208-2.111 7.001-1.867 17.408-9.716 26.797-9.088 17.921 1.199 36.519 11.425 39.014 17.458 1.036 2.504 15.648-1.764 23.206 1.34 7.896 3.243 26.461 12.877 18.966 14.18-31.935 5.551-173.336 11.369-208.513 14.118zM1278.18 291.911c-.049-12.016 13.924-3.034 14.418-3.777 7.131-10.721 16.771-13.764 27.741-13.869 5.089-.049 16.027 1.157 16.804.533 7.467-5.996 13.984-13.664 22.653-17.098 9.066-3.591 17.511-6.105 26.976-5 8.74 1.021 20.418 7.735 28.329 13.57.723.533 10.519-3.47 12.671-3.49 11.868-.114 24.323 2.352 36.116 7.774 1.539.708 13.001 5.987 13.014 9.018l-198.722 12.339z" />
    <path d="M1336.82 274.292c-.098.013-.661.083-1.232.086-3.361.012-11.177-.752-15.25-.713-11.076.106-20.814 3.17-28.055 13.87-.54-.15-1.558-.613-2.808-1.089-1.858-.708-4.188-1.452-6.259-1.443-1.497.006-2.864.402-3.882 1.403-1.057 1.04-1.76 2.763-1.749 5.507a.597.597 0 00.637.596l198.722-12.338a.601.601 0 00.563-.602c-.002-.467-.194-.985-.572-1.52-.47-.665-1.241-1.385-2.191-2.106-3.509-2.665-9.511-5.433-10.6-5.934-11.877-5.461-24.421-7.943-36.373-7.829-1.531.015-6.875 1.99-10.191 3.001-.73.223-1.357.396-1.813.483a4.315 4.315 0 01-.402.052c-7.985-5.875-19.729-12.585-28.519-13.612-9.565-1.117-18.103 1.409-27.266 5.038-8.705 3.449-15.266 11.123-22.76 17.15zm-58.635 17.619c-.049-12.016 13.924-3.034 14.418-3.777 7.131-10.721 16.771-13.764 27.741-13.869 5.089-.049 16.027 1.157 16.804.533 7.467-5.996 13.984-13.664 22.653-17.098 9.066-3.591 17.511-6.105 26.976-5 8.74 1.021 20.418 7.735 28.329 13.57.723.533 10.519-3.47 12.671-3.49 11.868-.114 24.323 2.352 36.116 7.774 1.539.708 13.001 5.987 13.014 9.018l-198.722 12.339z" />
  </g>
  <text class="text" x="440.281" y="386.316" font-family="'HelveticaNeue-Bold','Helvetica Neue'" font-weight="700" font-size="58.305">
FRONT END DEVELOPER
</text>
</svg>
