<svg xmlns="http://www.w3.org/2000/svg" width="920.146" height="349.546" viewBox="0 0 920.146 349.546">
  <g id="Group_13" data-name="Group 13" transform="translate(-77.556 -53)">
    <g id="Group_2" data-name="Group 2" transform="translate(77.556 53)">
      <rect id="Rectangle_1" data-name="Rectangle 1" width="287.498" height="92.762" transform="translate(0 0)" fill="#61dafb"/>
      <g id="Group_1" data-name="Group 1" transform="translate(21.659 26.869)">
        <g id="react-original" transform="translate(0 0.302)">
          <circle id="Ellipse_1" data-name="Ellipse 1" cx="5.075" cy="5.075" r="5.075" transform="translate(16.42 14.119)" fill="#fff"/>
          <path id="Path_1" data-name="Path 1" d="M37.763,20.839c-.755-.275-1.545-.549-2.369-.79.206-.824.378-1.648.515-2.438.721-4.533-.069-7.726-2.266-8.962a4.265,4.265,0,0,0-2.2-.549c-2.4,0-5.46,1.786-8.55,4.773C19.8,9.886,16.749,8.1,14.345,8.1a4.265,4.265,0,0,0-2.2.549c-2.2,1.27-2.987,4.464-2.266,8.962.137.79.309,1.614.515,2.438a23.946,23.946,0,0,0-2.369.79C3.735,22.487,1.4,24.754,1.4,27.295S3.769,32.1,8.027,33.75c.755.275,1.545.549,2.369.79-.206.824-.378,1.648-.515,2.438C9.16,41.51,9.95,44.7,12.148,45.94a4.265,4.265,0,0,0,2.2.549c2.438,0,5.494-1.786,8.55-4.773,3.09,2.987,6.146,4.773,8.55,4.773a4.265,4.265,0,0,0,2.2-.549c2.2-1.27,2.987-4.464,2.266-8.962-.137-.79-.309-1.614-.515-2.438a23.944,23.944,0,0,0,2.369-.79c4.292-1.648,6.627-3.914,6.627-6.455S42.055,22.487,37.763,20.839ZM32.681,10.366c1.408.824,1.889,3.365,1.3,6.97a20.677,20.677,0,0,1-.481,2.266,40.794,40.794,0,0,0-5.666-.858,49.543,49.543,0,0,0-3.571-4.464c2.541-2.507,5.116-4.223,7.211-4.223A2.32,2.32,0,0,1,32.681,10.366ZM28.835,30.728c-.618,1.1-1.339,2.2-2.095,3.3-1.27.1-2.541.137-3.846.137-1.339,0-2.61-.034-3.846-.137q-1.133-1.648-2.06-3.3c-.652-1.133-1.27-2.3-1.82-3.434.549-1.133,1.167-2.3,1.82-3.434.618-1.1,1.339-2.2,2.095-3.3,1.27-.1,2.541-.137,3.846-.137,1.339,0,2.61.034,3.846.137q1.133,1.648,2.06,3.3c.652,1.133,1.27,2.3,1.82,3.434C30.072,28.428,29.488,29.561,28.835,30.728Zm2.85-1.133c.515,1.2.927,2.369,1.3,3.537-1.167.275-2.4.481-3.708.652.412-.652.858-1.339,1.236-2.06.412-.721.79-1.442,1.167-2.129ZM22.9,38.9c-.824-.893-1.614-1.854-2.369-2.85.79.034,1.58.069,2.369.069s1.58-.034,2.369-.069C24.509,37.046,23.719,38.008,22.9,38.9ZM16.508,33.75c-1.3-.172-2.541-.378-3.708-.652.378-1.133.79-2.335,1.3-3.537.378.687.755,1.408,1.167,2.095.412.755.824,1.408,1.236,2.095Zm-2.4-8.756c-.515-1.2-.927-2.369-1.3-3.537,1.167-.275,2.4-.481,3.708-.652-.412.652-.858,1.339-1.236,2.06C14.86,23.586,14.483,24.307,14.1,24.994Zm8.79-9.305c.824.893,1.614,1.854,2.369,2.85-.79-.034-1.58-.069-2.369-.069s-1.58.034-2.369.069C21.281,17.543,22.071,16.581,22.9,15.689ZM30.518,22.9l-1.236-2.06c1.3.172,2.541.378,3.708.652-.378,1.133-.79,2.335-1.3,3.537C31.308,24.307,30.93,23.586,30.518,22.9ZM11.8,17.337c-.584-3.605-.1-6.146,1.3-6.97a2.32,2.32,0,0,1,1.2-.309c2.06,0,4.636,1.683,7.211,4.223a45.138,45.138,0,0,0-3.571,4.464,46.684,46.684,0,0,0-5.666.858c-.206-.79-.343-1.545-.481-2.266ZM3.323,27.295c0-1.614,1.957-3.331,5.391-4.6a20.587,20.587,0,0,1,2.2-.721,50.05,50.05,0,0,0,2.06,5.357,43.268,43.268,0,0,0-2.06,5.322C6.173,31.278,3.323,29.217,3.323,27.295Zm9.786,16.928c-1.408-.824-1.889-3.365-1.3-6.97a20.676,20.676,0,0,1,.481-2.266,40.794,40.794,0,0,0,5.666.858,49.545,49.545,0,0,0,3.571,4.464c-2.541,2.507-5.116,4.223-7.211,4.223A2.32,2.32,0,0,1,13.109,44.223Zm20.877-6.97c.584,3.605.1,6.146-1.3,6.97a2.32,2.32,0,0,1-1.2.309c-2.06,0-4.636-1.683-7.211-4.223a45.137,45.137,0,0,0,3.571-4.464,46.684,46.684,0,0,0,5.666-.858C33.711,35.776,33.849,36.531,33.986,37.252Zm3.09-5.357a20.586,20.586,0,0,1-2.2.721,50.05,50.05,0,0,0-2.06-5.357,43.27,43.27,0,0,0,2.06-5.322c4.739,1.373,7.589,3.434,7.589,5.357C42.467,28.908,40.476,30.625,37.076,31.9Z" transform="translate(-1.4 -8.1)" fill="#fff"/>
        </g>
        <text id="React_JS" data-name="React JS" transform="translate(74.785 31.131)" fill="#fff" font-size="33" font-family="HelveticaNeue, Helvetica Neue" letter-spacing="0.062em"><tspan x="0" y="0">React JS</tspan></text>
      </g>
    </g>
    <g id="Group_3" data-name="Group 3" transform="translate(393.556 52.686)">
      <rect id="Rectangle_1-2" data-name="Rectangle 1" width="287" height="92" transform="translate(0.444 0.314)"/>
      <g id="Group_1-2" data-name="Group 1" transform="translate(21.495 24.719)">
        <text id="Next_JS" data-name="Next JS" transform="translate(74.949 33.595)" fill="#fff" font-size="33" font-family="HelveticaNeue, Helvetica Neue" letter-spacing="0.062em"><tspan x="0" y="0">Next JS</tspan></text>
        <path id="nextjs-original" d="M21.5,0A21.5,21.5,0,1,0,31.84,40.337L16.256,18.573V30.866H13.972V14.039h2.284L33.217,39.5A21.485,21.485,0,0,0,21.5,0Zm7.423,28.414-2.519-3.8V14.039h2.519Z" transform="translate(0 0)" fill="#fff"/>
      </g>
    </g>
    <g id="Group_4" data-name="Group 4" transform="translate(709.947 53.333)">
      <rect id="Rectangle_1-3" data-name="Rectangle 1" width="287.755" height="92.429" transform="translate(0 0)" fill="#1572b6"/>
      <g id="Group_1-3" data-name="Group 1" transform="translate(21.753 24.22)">
        <text id="CSS" transform="translate(75.233 36.374)" fill="#fff" font-size="33" font-family="HelveticaNeue, Helvetica Neue" letter-spacing="0.062em"><tspan x="0" y="0">CSS</tspan></text>
        <path id="css3-plain" d="M8.76,1l3.482,44.482,15.623,4.957,15.667-4.975L47.016,1ZM39.783,11.191,38.624,26.009l0,.08,0,.184v0L37.8,36.633l-.091.921-9.82,3.091h0l-.008.007-9.8-3.108-.664-8.566h4.807l.341,4.356,5.328,1.643v0h0l5.347-1.666.565-7.093H22.622l-.1-1.2-.218-2.809L22.193,20.7H34.225l.438-5.517H16.336l-.1-1.2-.218-2.81-.115-1.508H39.9l-.115,1.522Z" transform="translate(-8.76 -1)" fill="#fff"/>
      </g>
    </g>
    <g id="Group_11" data-name="Group 11" transform="translate(0.258 -224)">
      <g id="Group_5" data-name="Group 5" transform="translate(77.298 405.725)">
        <rect id="Rectangle_1-4" data-name="Rectangle 1" width="287.755" height="92.429" transform="translate(0 0)" fill="#ff4785"/>
        <g id="Group_1-4" data-name="Group 1" transform="translate(96.986 26.869)">
          <text id="Storybook" transform="translate(0 31)" fill="#fff" font-size="33" font-family="HelveticaNeue, Helvetica Neue" letter-spacing="0.062em"><tspan x="0" y="0">Storybook</tspan></text>
        </g>
      </g>
      <path id="storybook-original" d="M54.128,2l-2.972.185.232,6.181a.4.4,0,0,1-.651.329l-1.99-1.569L46.388,8.92a.4.4,0,0,1-.644-.337l.265-6.071L16.524,4.356A2.693,2.693,0,0,0,14,7.145l1.659,44.21a2.693,2.693,0,0,0,2.571,2.589l35.944,1.614a2.693,2.693,0,0,0,2.814-2.689V4.693A2.693,2.693,0,0,0,54.128,2ZM36.3,11.113c7.011,0,10.839,3.75,10.839,10.885-.947.736-8,1.238-8,.19.149-4-1.641-4.173-2.635-4.173a2.244,2.244,0,0,0-2.536,2.426c0,5.283,13.623,5,13.623,15.659,0,6-4.873,9.309-11.087,9.309-6.414,0-12.019-2.595-11.386-11.591.248-1.056,8.4-.805,8.4,0-.1,3.712.746,4.8,2.883,4.8A2.146,2.146,0,0,0,38.791,36.2c0-5.426-13.424-5.616-13.424-15.563,0-5.711,3.928-9.519,10.938-9.519Z" transform="translate(85.053 423.492)" fill="#fff"/>
    </g>
    <g id="Group_12" data-name="Group 12" transform="translate(316.066 -341.686)">
      <g id="Group_6" data-name="Group 6" transform="translate(77.556 523.411)">
        <rect id="Rectangle_1-5" data-name="Rectangle 1" width="287.755" height="92.429" transform="translate(0 0)" fill="#dd80bc"/>
        <g id="Group_1-5" data-name="Group 1" transform="translate(96.986 26.869)">
          <text id="Adobe_XD" data-name="Adobe XD" transform="translate(0 31)" fill="#fff" font-size="33" font-family="HelveticaNeue, Helvetica Neue" letter-spacing="0.062em"><tspan x="0" y="0">Adobe XD</tspan></text>
        </g>
      </g>
      <path id="xd-plain" d="M43.99,1.785c0-.717,0-.785-.682-.785H1.853C1.171,1,1,1.068,1,1.751V43.206c0,.682.1.682.751.682H43.308c.546,0,.682-.136.682-.682-.034-6.892,0-13.818,0-20.71Zm-23.3,30.946-3.31-7.438L13.9,32.731H10.076l4.947-10L10.417,12.157l3.924.034,2.9,6.926,3.548-6.96h3.685L19.493,22.188,24.44,32.731H20.687Zm14.876-20.2V31.844c0,.512-.068.819-.58.853-2.388.307-4.777.648-7.131-.034a5.526,5.526,0,0,1-4.128-5.493c-.136-3.412,1.16-5.766,3.685-6.858a9.738,9.738,0,0,1,4.981-.546V12.191h3.173v.341ZM28.91,30.07a7.678,7.678,0,0,0,3.412,0V23.246a.493.493,0,0,0-.239-.341,5.728,5.728,0,0,0-3.753.444,3.8,3.8,0,0,0-1.74,3.787,3.04,3.04,0,0,0,2.32,2.934Z" transform="translate(98.051 547.181)" fill="#fff"/>
    </g>
    <g id="Group_7" data-name="Group 7" transform="translate(709.689 181.725)">
      <g id="Group_8" data-name="Group 8" transform="translate(0 0)">
        <rect id="Rectangle_1-6" data-name="Rectangle 1" width="287.755" height="92.429" transform="translate(0 0)" fill="#f0db4f"/>
        <g id="Group_1-6" data-name="Group 1" transform="translate(96.986 26.869)">
          <text id="Javascript" transform="translate(-0.284 31.178)" font-size="33" font-family="HelveticaNeue, Helvetica Neue" letter-spacing="0.062em"><tspan x="0" y="0">Javascript</tspan></text>
        </g>
      </g>
      <path id="javascript-plain" d="M2,1V43.99H44.99V1ZM24.74,37.632a5.083,5.083,0,0,1-3.249,2.545,7.816,7.816,0,0,1-5.754-.708,6.471,6.471,0,0,1-2.373-2.717l3.274-2.005a2.072,2.072,0,0,1,.229.368,3.457,3.457,0,0,0,1.485,1.542c.7.237,2.222.389,2.812-.835.36-.622.246-2.623.246-4.837,0-3.479.016-6.943.016-10.382h4.027c0,3.783.021,7.366,0,11.058.009,2.263.2,4.28-.712,5.971Zm16.706-1.138c-1.4,4.788-9.2,4.944-12.323,1.78a7.277,7.277,0,0,1-1.465-1.993c1.657-.953,1.657-.953,3.27-1.886a4.613,4.613,0,0,0,3.143,2.39c1.977.241,3.966-.438,3.52-2.537-.458-1.715-4.048-2.132-6.491-3.966a5.636,5.636,0,0,1-1.023-8.025,5.753,5.753,0,0,1,3.053-1.8l1.268-.164c2.435-.049,3.958.594,5.075,1.842a8.038,8.038,0,0,1,1.039,1.391c-1.3.827-1.293.819-3.151,2.022a3,3,0,0,0-1.752-1.625,2.072,2.072,0,0,0-2.726,1.17,2.223,2.223,0,0,0,.078,1.26c.438,1,1.907,1.432,3.225,2.038,3.794,1.539,5.075,3.189,5.39,5.152a5.906,5.906,0,0,1-.131,2.951Z" transform="translate(19.753 23.719)"/>
    </g>
    <g id="Group_9" data-name="Group 9" transform="translate(77.556 310.116)">
      <g id="Group_8-2" data-name="Group 8" transform="translate(0 0)">
        <path id="Path_9" data-name="Path 9" d="M0,0H287.755V92.429H0Z" transform="translate(0 0)" fill="#fd8db8"/>
        <g id="Group_1-7" data-name="Group 1" transform="translate(97.244 15.584)">
          <text id="Styled_Components" data-name="Styled
Components" transform="translate(-0.284 24.777)" fill="#fff" font-size="26" font-family="HelveticaNeue, Helvetica Neue" letter-spacing="0.062em"><tspan x="0" y="0">Styled</tspan><tspan x="0" y="32">Components</tspan></text>
        </g>
      </g>
      <text id="_" data-name="💅" transform="translate(21.96 62.361)" font-size="46" font-family="AppleColorEmoji, Apple Color Emoji" letter-spacing="0.062em"><tspan x="0" y="0">💅</tspan></text>
    </g>
  </g>
</svg>
